<svg id="Capa_1" data-name="Capa 1" xmlns="http://www.w3.org/2000/svg" viewBox="0 0 414.58 559.66"><defs><style>.cls-1,.cls-10,.cls-11,.cls-12,.cls-13,.cls-14,.cls-15,.cls-16,.cls-17,.cls-18,.cls-19,.cls-2,.cls-20,.cls-21,.cls-22,.cls-23,.cls-24,.cls-25,.cls-3,.cls-4,.cls-5,.cls-6,.cls-7,.cls-8,.cls-9{fill:#75d7ff}.cls-1{opacity:.02}.cls-2{opacity:.1}.cls-3{opacity:.05}.cls-4{opacity:.15}.cls-5{opacity:.23}.cls-6{opacity:.22}.cls-7{opacity:.09}.cls-8{opacity:.34}.cls-9{opacity:.31}.cls-10{opacity:.14}.cls-11{opacity:.41}.cls-12{opacity:.37}.cls-13{opacity:.19}.cls-14{opacity:.44}.cls-15{opacity:.6}.cls-16{opacity:.26}.cls-17{opacity:.3}.cls-18{opacity:.25}.cls-19{opacity:.5}.cls-20{opacity:.8}.cls-21{opacity:.4}.cls-22{opacity:.66}.cls-23{opacity:.18}.cls-24{opacity:.32}.cls-25{opacity:.11}</style></defs><title>background_blocks</title><path class="cls-1" transform="rotate(-45 82.915 20.726)" d="M68.26 6.07h29.31v29.31H68.26z"/><path class="cls-1" d="M82.91 41.46L62.19 62.18 41.46 41.46l20.73-20.73 20.72 20.73z"/><path class="cls-2" d="M145.08 20.73l-20.71 20.73-20.73-20.73L124.37 0l20.71 20.73z"/><path class="cls-1" d="M124.36 41.47l-20.72 20.72-20.69-20.72 20.69-20.74 20.72 20.74zM103.64 62.19L82.92 82.9 62.19 62.19l20.73-20.73 20.72 20.73z"/><path class="cls-3" d="M82.91 82.91l-20.72 20.73-20.72-20.73 20.72-20.72 20.72 20.72z"/><path class="cls-1" d="M62.18 103.66l-20.72 20.7-20.72-20.7 20.72-20.75 20.72 20.75z"/><path class="cls-2" transform="rotate(-45 165.827 20.732)" d="M151.17 6.07h29.31v29.31h-29.31z"/><path class="cls-4" d="M165.8 41.47l-20.7 20.72-20.7-20.72 20.7-20.74 20.7 20.74z"/><path class="cls-2" d="M145.09 62.2l-20.72 20.72-20.73-20.72 20.73-20.74 20.72 20.74z"/><path class="cls-3" d="M124.36 82.91l-20.72 20.73-20.7-20.73 20.7-20.72 20.72 20.72zM103.64 103.65l-20.72 20.7-20.72-20.7 20.72-20.73 20.72 20.73zM82.92 124.37L62.19 145.1l-20.73-20.73 20.73-20.72 20.73 20.72z"/><path class="cls-5" d="M228.02 20.73l-20.73 20.73-20.71-20.73L207.29 0l20.73 20.73z"/><path class="cls-2" d="M207.28 41.47l-20.73 20.71-20.71-20.71 20.71-20.73 20.73 20.73zM186.56 62.19L165.83 82.9 145.1 62.19l20.73-20.73 20.73 20.73z"/><path class="cls-1" d="M165.8 82.91l-20.7 20.73-20.7-20.73 20.7-20.72 20.7 20.72z"/><path class="cls-3" d="M145.08 103.66l-20.71 20.71-20.73-20.71 20.73-20.74 20.71 20.74z"/><path class="cls-3" d="M124.37 124.37l-20.73 20.73-20.7-20.73 20.7-20.73 20.73 20.73z"/><path class="cls-3" transform="rotate(-45 82.915 145.106)" d="M68.26 130.45h29.31v29.31H68.26z"/><path class="cls-3" d="M82.91 165.84l-20.72 20.7-20.73-20.7 20.73-20.74 20.72 20.74z"/><path class="cls-6" transform="rotate(-45 228.023 41.46)" d="M213.36 26.8h29.31v29.31h-29.31z"/><path class="cls-4" d="M228.01 62.2l-20.72 20.72-20.72-20.72 20.72-20.74 20.72 20.74z"/><path class="cls-6" d="M207.28 82.92l-20.73 20.72-20.71-20.72 20.71-20.72 20.73 20.72z"/><path class="cls-2" d="M186.56 103.64l-20.74 20.74-20.72-20.74 20.72-20.71 20.74 20.71z"/><path class="cls-7" d="M165.82 124.38l-20.72 20.7-20.72-20.7 20.72-20.74 20.72 20.74z"/><path class="cls-7" transform="rotate(-45.03 124.381 145.102)" d="M109.72 130.45h29.3v29.3h-29.3z"/><path class="cls-3" d="M124.35 165.83l-20.71 20.73-20.72-20.73 20.72-20.73 20.71 20.73z"/><path class="cls-3" d="M103.64 186.57l-20.72 20.7-20.7-20.7 20.7-20.74 20.72 20.74zM82.92 207.29l-20.73 20.73-20.73-20.73 20.73-20.71 20.73 20.71z"/><path class="cls-3" d="M62.18 228.01l-20.72 20.73-20.72-20.73 20.72-20.72 20.72 20.72z"/><path class="cls-1" d="M41.44 248.74l-20.71 20.74L.01 248.74l20.72-20.72 20.71 20.72z"/><path class="cls-8" transform="rotate(-45 269.473 41.46)" d="M254.82 26.8h29.31v29.31h-29.31z"/><path class="cls-5" d="M269.46 62.2l-20.71 20.72-20.74-20.72 20.74-20.74 20.71 20.74z"/><path class="cls-9" d="M248.75 82.92l-20.73 20.71-20.73-20.71 20.73-20.73 20.73 20.73z"/><path class="cls-5" d="M228.01 103.63l-20.72 20.74-20.72-20.74 20.72-20.71 20.72 20.71z"/><path class="cls-9" d="M207.27 124.39l-20.72 20.7-20.7-20.7 20.7-20.74 20.72 20.74z"/><path class="cls-10" d="M186.56 145.1l-20.74 20.72-20.72-20.72 20.72-20.72 20.74 20.72z"/><path class="cls-10" transform="rotate(-45 145.098 165.828)" d="M130.45 151.17h29.31v29.31h-29.31z"/><path class="cls-2" d="M145.08 186.58l-20.71 20.71-20.71-20.71 20.71-20.75 20.71 20.75z"/><path class="cls-3" d="M124.36 207.28l-20.71 20.73-20.73-20.73 20.73-20.71 20.71 20.71zM103.64 228.01l-20.72 20.74-20.7-20.74 20.7-20.72 20.72 20.72z"/><path class="cls-2" d="M82.91 248.74l-20.72 20.74-20.72-20.74 20.72-20.72 20.72 20.72z"/><path class="cls-3" transform="rotate(-45 41.457 269.468)" d="M26.8 254.82h29.31v29.31H26.8z"/><path class="cls-11" transform="rotate(-45 310.907 41.468)" d="M296.28 26.8h29.31v29.31h-29.31z"/><path class="cls-8" d="M310.92 62.2L290.2 82.92 269.49 62.2l20.71-20.74 20.72 20.74z"/><path class="cls-8" d="M290.2 82.92l-20.72 20.71-20.73-20.71 20.73-20.73 20.72 20.73zM269.48 103.64l-20.72 20.74-20.74-20.74 20.74-20.71 20.72 20.71z"/><path class="cls-5" d="M248.74 124.38l-20.72 20.7-20.72-20.7 20.72-20.74 20.72 20.74z"/><path class="cls-12" transform="rotate(-45 207.307 145.11)" d="M192.63 130.44h29.31v29.31h-29.31z"/><path class="cls-10" d="M207.29 165.83l-20.73 20.73-20.71-20.73 20.71-20.73 20.73 20.73z"/><path class="cls-13" d="M186.57 186.57l-20.74 20.7-20.72-20.7 20.72-20.74 20.74 20.74z"/><path class="cls-10" d="M165.83 207.29l-20.73 20.73-20.73-20.73 20.73-20.71 20.73 20.71z"/><path class="cls-4" d="M145.07 228.01l-20.7 20.74-20.7-20.74 20.7-20.72 20.7 20.72z"/><path class="cls-7" d="M124.34 248.74l-20.7 20.74-20.71-20.74 20.71-20.72 20.7 20.72z"/><path class="cls-2" d="M103.64 269.48L82.92 290.2l-20.71-20.72 20.71-20.73 20.72 20.73zM82.92 290.21l-20.73 20.7-20.73-20.7 20.73-20.73 20.73 20.73z"/><path class="cls-3" d="M62.18 310.93l-20.72 20.74-20.73-20.74 20.73-20.72 20.72 20.72z"/><path class="cls-1" transform="rotate(-45.01 20.744 331.686)" d="M6.07 317.01h29.31v29.31H6.07z"/><path class="cls-12" transform="rotate(-45 352.391 41.455)" d="M337.73 26.8h29.32v29.32h-29.32z"/><path class="cls-14" d="M352.36 62.2l-20.7 20.72-20.72-20.72 20.72-20.74 20.7 20.74z"/><path class="cls-15" d="M331.66 82.92l-20.73 20.71-20.73-20.71 20.73-20.73 20.73 20.73z"/><path class="cls-16" d="M310.92 103.63l-20.72 20.74-20.71-20.74 20.71-20.71 20.72 20.71z"/><path class="cls-8" d="M290.19 124.38l-20.71 20.7-20.72-20.7 20.72-20.74 20.71 20.74z"/><path class="cls-17" d="M269.47 145.1l-20.71 20.72-20.74-20.72 20.74-20.71 20.71 20.71z"/><path class="cls-12" transform="rotate(-45 228.011 165.835)" d="M213.36 151.17h29.31v29.31h-29.31z"/><path class="cls-8" d="M228.01 186.57l-20.72 20.7-20.72-20.7 20.72-20.74 20.72 20.74z"/><path class="cls-18" d="M207.3 207.28l-20.74 20.74-20.72-20.74 20.72-20.72 20.74 20.72z"/><path class="cls-10" d="M186.56 228.02l-20.74 20.74-20.72-20.74 20.72-20.72 20.74 20.72z"/><path class="cls-13" d="M165.82 248.74l-20.72 20.74-20.72-20.74 20.72-20.72 20.72 20.72z"/><path class="cls-4" transform="rotate(-45.03 124.365 269.467)" d="M109.72 254.82h29.3v29.3h-29.3z"/><path class="cls-4" d="M124.37 290.21l-20.71 20.71-20.74-20.71 20.74-20.75 20.71 20.75z"/><path class="cls-3" d="M103.64 310.92l-20.72 20.74-20.7-20.74 20.7-20.72 20.72 20.72z"/><path class="cls-3" transform="rotate(-45 62.18 331.664)" d="M47.53 317.01h29.31v29.31H47.53z"/><path class="cls-1" transform="rotate(-45 41.463 352.386)" d="M26.8 337.74h29.31v29.31H26.8z"/><path class="cls-12" d="M414.56 41.46l-20.71 20.73-20.73-20.73 20.73-20.73 20.71 20.73zM393.84 62.2l-20.72 20.72L352.4 62.2l20.72-20.74 20.72 20.74z"/><path class="cls-12" d="M373.12 82.92l-20.73 20.71-20.73-20.71 20.73-20.73 20.73 20.73z"/><path class="cls-13" d="M352.36 103.63l-20.7 20.74-20.72-20.74 20.72-20.71 20.7 20.71z"/><path class="cls-16" d="M331.65 124.38l-20.72 20.7-20.72-20.7 20.72-20.74 20.72 20.74z"/><path class="cls-16" transform="rotate(-45 290.224 145.105)" d="M275.55 130.44h29.31v29.31h-29.31z"/><path class="cls-16" transform="rotate(-45 269.478 165.828)" d="M254.82 151.17h29.31v29.31h-29.31z"/><path class="cls-17" d="M269.46 186.57l-20.7 20.69-20.73-20.69 20.73-20.73 20.7 20.73z"/><path class="cls-13" d="M248.75 207.29l-20.73 20.73-20.73-20.73 20.73-20.71 20.73 20.71zM228.01 228.01l-20.72 20.74-20.72-20.74 20.72-20.72 20.72 20.72zM207.28 248.74l-20.72 20.74-20.7-20.74 20.7-20.72 20.72 20.72z"/><path class="cls-7" d="M186.56 269.48l-20.74 20.71-20.72-20.71 20.72-20.72 20.74 20.72z"/><path class="cls-7" d="M165.83 290.21l-20.73 20.7-20.73-20.7 20.73-20.73 20.73 20.73z"/><path class="cls-18" d="M145.07 310.92l-20.7 20.74-20.7-20.74 20.7-20.72 20.7 20.72z"/><path class="cls-13" d="M124.35 331.66l-20.71 20.73-20.72-20.73 20.72-20.73 20.71 20.73z"/><path class="cls-7" d="M103.64 352.39l-20.72 20.73-20.71-20.73 20.71-20.73 20.72 20.73z"/><path class="cls-7" transform="rotate(-45 62.198 373.137)" d="M47.53 358.46h29.31v29.31H47.53z"/><path class="cls-1" d="M62.18 393.84l-20.72 20.73-20.72-20.73 20.72-20.71 20.72 20.71z"/><path class="cls-12" d="M414.58 82.92l-20.72 20.72-20.74-20.72 20.74-20.74 20.72 20.74z"/><path class="cls-14" d="M393.84 103.63l-20.72 20.74-20.72-20.74 20.72-20.71 20.72 20.71z"/><path class="cls-12" d="M373.11 124.38l-20.72 20.7-20.72-20.7 20.72-20.74 20.72 20.74z"/><path class="cls-19" d="M352.37 145.1l-20.71 20.73-20.73-20.73 20.73-20.73 20.71 20.73z"/><path class="cls-20" transform="rotate(-45 310.9 165.831)" d="M296.28 151.17h29.31v29.31h-29.31z"/><path class="cls-21" d="M310.92 186.57l-20.72 20.7-20.71-20.7 20.71-20.74 20.72 20.74z"/><path class="cls-16" d="M290.2 207.29l-20.72 20.73-20.73-20.73 20.73-20.71 20.72 20.71zM269.45 228.02l-20.7 20.73-20.73-20.73 20.73-20.71 20.7 20.71z"/><path class="cls-13" d="M248.74 248.74l-20.72 20.74-20.72-20.74 20.72-20.72 20.72 20.72z"/><path class="cls-13" transform="rotate(-45 207.288 269.469)" d="M192.63 254.82h29.31v29.31h-29.31z"/><path class="cls-10" d="M207.28 290.22l-20.73 20.7-20.71-20.7 20.71-20.73 20.73 20.73z"/><path class="cls-13" d="M186.56 310.93l-20.74 20.74-20.72-20.74 20.72-20.72 20.74 20.72z"/><path class="cls-13" transform="rotate(-45 145.098 331.659)" d="M130.45 317.01h29.31v29.31h-29.31z"/><path class="cls-13" transform="rotate(-45.03 124.358 352.378)" d="M109.72 337.74h29.3v29.3h-29.3z"/><path class="cls-13" d="M124.35 373.12l-20.71 20.73-20.72-20.73 20.72-20.73 20.71 20.73z"/><path class="cls-7" d="M103.64 393.84l-20.72 20.74-20.7-20.74 20.7-20.72 20.72 20.72z"/><path class="cls-1" d="M82.91 414.59l-20.72 20.7-20.72-20.7 20.72-20.74 20.72 20.74z"/><path class="cls-12" d="M414.56 124.39l-20.71 20.71-20.73-20.71 20.73-20.75 20.71 20.75z"/><path class="cls-5" transform="rotate(-45 373.142 145.1)" d="M358.46 130.44h29.31v29.31h-29.31z"/><path class="cls-5" transform="rotate(-45 352.391 165.835)" d="M337.73 151.17h29.32v29.32h-29.32z"/><path class="cls-15" d="M352.37 186.58l-20.7 20.7-20.72-20.7 20.72-20.74 20.7 20.74z"/><path class="cls-13" d="M331.66 207.29l-20.73 20.73-20.73-20.73 20.73-20.71 20.73 20.71z"/><path class="cls-16" d="M310.92 228.01l-20.72 20.74-20.71-20.74 20.71-20.72 20.72 20.72z"/><path class="cls-6" d="M290.19 248.74l-20.71 20.74-20.72-20.74 20.72-20.72 20.71 20.72zM269.48 269.48l-20.72 20.71-20.74-20.71 20.74-20.72 20.72 20.72z"/><path class="cls-13" d="M248.75 290.21l-20.73 20.7-20.73-20.7 20.73-20.73 20.73 20.73z"/><path class="cls-7" d="M228.01 310.92l-20.72 20.74-20.72-20.74 20.72-20.72 20.72 20.72z"/><path class="cls-13" d="M207.29 331.66l-20.73 20.73-20.71-20.73 20.71-20.73 20.73 20.73z"/><path class="cls-10" d="M186.56 352.39l-20.74 20.72-20.72-20.72 20.72-20.72 20.74 20.72z"/><path class="cls-10" transform="rotate(-45 145.128 373.136)" d="M130.45 358.46h29.31v29.31h-29.31z"/><path class="cls-13" d="M145.07 393.84l-20.7 20.74-20.7-20.74 20.7-20.72 20.7 20.72zM124.36 414.59l-20.7 20.71-20.73-20.71 20.73-20.75 20.7 20.75z"/><path class="cls-1" d="M103.66 435.32l-20.74 20.72-20.72-20.72 20.72-20.72 20.74 20.72zM82.89 456.01l-20.7 20.75-20.71-20.75 20.71-20.66 20.7 20.66z"/><path class="cls-5" d="M414.56 165.83l-20.71 20.73-20.73-20.73 20.73-20.73 20.71 20.73z"/><path class="cls-13" d="M393.84 186.57l-20.72 20.7-20.72-20.7 20.72-20.74 20.72 20.74zM373.12 207.29l-20.73 20.73-20.73-20.73 20.73-20.71 20.73 20.71z"/><path class="cls-11" d="M352.36 228.01l-20.7 20.74-20.72-20.74 20.72-20.72 20.7 20.72z"/><path class="cls-14" d="M331.65 248.74l-20.72 20.74-20.72-20.74 20.72-20.72 20.72 20.72z"/><path class="cls-6" transform="rotate(-45 290.2 269.475)" d="M275.55 254.82h29.32v29.32h-29.32z"/><path class="cls-6" d="M290.2 290.21l-20.72 20.7-20.73-20.7 20.73-20.73 20.72 20.73z"/><path class="cls-13" d="M269.45 310.93l-20.7 20.73-20.73-20.73 20.73-20.7 20.7 20.7z"/><path class="cls-10" transform="rotate(-45 228.01 331.665)" d="M213.36 317.01h29.31v29.31h-29.31z"/><path class="cls-13" transform="rotate(-45 207.293 352.386)" d="M192.63 337.73h29.31v29.31h-29.31z"/><path class="cls-5" d="M207.29 373.12l-20.73 20.73-20.71-20.73 20.71-20.73 20.73 20.73z"/><path class="cls-13" d="M186.56 393.85l-20.74 20.74-20.72-20.74 20.72-20.72 20.74 20.72z"/><path class="cls-13" d="M165.82 414.59l-20.72 20.7-20.72-20.7 20.72-20.74 20.72 20.74z"/><path class="cls-10" transform="rotate(-45 124.37 435.305)" d="M109.72 420.65h29.32v29.32h-29.32z"/><path class="cls-7" d="M124.33 456.01l-20.69 20.75-20.7-20.75 20.7-20.66 20.69 20.66z"/><path class="cls-13" d="M414.56 207.29l-20.71 20.73-20.73-20.73 20.73-20.71 20.71 20.71z"/><path class="cls-13" d="M393.84 228.01l-20.72 20.74-20.72-20.74 20.72-20.72 20.72 20.72z"/><path class="cls-12" d="M373.11 248.74l-20.72 20.74-20.72-20.74 20.72-20.72 20.72 20.72z"/><path class="cls-16" d="M352.37 269.48l-20.71 20.72-20.73-20.72 20.73-20.73 20.71 20.73z"/><path class="cls-8" d="M331.66 290.21l-20.73 20.7-20.72-20.7 20.72-20.73 20.73 20.73z"/><path class="cls-19" d="M310.92 310.92l-20.72 20.74-20.71-20.74 20.71-20.72 20.72 20.72z"/><path class="cls-19" transform="rotate(-45 269.478 331.659)" d="M254.82 317h29.31v29.31h-29.31z"/><path class="cls-12" d="M269.48 352.39l-20.72 20.72-20.74-20.72 20.74-20.72 20.72 20.72z"/><path class="cls-13" transform="rotate(-45 228.04 373.142)" d="M213.36 358.46h29.31v29.31h-29.31z"/><path class="cls-13" d="M228.01 393.84l-20.72 20.74-20.72-20.74 20.72-20.72 20.72 20.72z"/><path class="cls-22" d="M207.28 414.59l-20.72 20.7-20.7-20.7 20.7-20.74 20.72 20.74z"/><path class="cls-13" d="M186.56 435.31L165.82 456l-20.72-20.69 20.72-20.7 20.74 20.7z"/><path class="cls-10" d="M165.81 456.01l-20.71 20.75-20.71-20.75 20.71-20.66 20.71 20.66z"/><path class="cls-7" transform="rotate(-45.03 124.365 476.753)" d="M109.72 462.11h29.3v29.3h-29.3z"/><path class="cls-12" d="M414.55 248.74l-20.7 20.74-20.72-20.74 20.72-20.72 20.7 20.72z"/><path class="cls-8" transform="rotate(-45 373.118 269.47)" d="M358.46 254.82h29.31v29.31h-29.31z"/><path class="cls-8" d="M373.12 290.21l-20.73 20.7-20.73-20.7 20.73-20.73 20.73 20.73z"/><path class="cls-12" d="M352.36 310.92l-20.7 20.74-20.72-20.74 20.72-20.72 20.7 20.72z"/><path class="cls-13" transform="rotate(-45 310.904 331.65)" d="M296.28 317.01h29.31v29.31h-29.31z"/><path class="cls-8" transform="rotate(-45 290.206 352.393)" d="M275.55 337.73h29.32v29.32h-29.32z"/><path class="cls-8" transform="rotate(-45 269.508 373.136)" d="M254.82 358.46h29.31v29.31h-29.31z"/><path class="cls-6" d="M269.45 393.85l-20.7 20.73-20.73-20.73 20.73-20.71 20.7 20.71z"/><path class="cls-23" d="M248.74 414.59l-20.72 20.7-20.72-20.7 20.72-20.74 20.72 20.74z"/><path class="cls-23" transform="rotate(-44.97 207.306 435.313)" d="M192.64 420.66h29.3v29.3h-29.3z"/><path class="cls-17" d="M207.28 456l-20.72 20.76-20.7-20.76 20.7-20.68L207.28 456z"/><path class="cls-7" d="M186.56 476.76l-20.74 20.72-20.72-20.72 20.72-20.71 20.74 20.71z"/><path class="cls-3" d="M165.83 497.49l-20.73 20.73-20.73-20.73 20.73-20.68 20.73 20.68z"/><path class="cls-1" d="M145.08 518.2l-20.71 20.75-20.71-20.75 20.71-20.71 20.71 20.71z"/><path class="cls-8" d="M414.58 290.21l-20.72 20.71-20.74-20.71 20.74-20.74 20.72 20.74z"/><path class="cls-16" d="M393.84 310.92l-20.72 20.74-20.72-20.74 20.72-20.71 20.72 20.71z"/><path class="cls-16" transform="rotate(-45 352.39 331.665)" d="M337.73 317h29.32v29.32h-29.32z"/><path class="cls-21" d="M352.37 352.39l-20.71 20.73-20.73-20.73 20.73-20.73 20.71 20.73z"/><path class="cls-8" transform="rotate(-45 310.922 373.122)" d="M296.28 358.46h29.31v29.31h-29.31z"/><path class="cls-16" d="M310.92 393.84l-20.72 20.74-20.71-20.74 20.71-20.72 20.72 20.72zM290.19 414.59l-20.71 20.7-20.72-20.7 20.72-20.74 20.71 20.74z"/><path class="cls-13" d="M269.48 435.31L248.76 456l-20.74-20.69 20.74-20.7 20.72 20.7z"/><path class="cls-12" d="M248.72 456.02l-20.7 20.74-20.71-20.74 20.71-20.67 20.7 20.67z"/><path class="cls-13" transform="rotate(-45 207.293 476.766)" d="M192.63 462.11h29.31v29.31h-29.31z"/><path class="cls-7" d="M207.3 497.48l-20.74 20.74-20.72-20.74 20.72-20.69 20.74 20.69z"/><path class="cls-3" d="M186.57 518.21l-20.74 20.74-20.72-20.74 20.72-20.7 20.74 20.7zM165.82 538.96l-20.72 20.7-20.72-20.7 20.72-20.74 20.72 20.74z"/><path class="cls-16" d="M414.56 331.66l-20.71 20.73-20.73-20.73 20.73-20.73 20.71 20.73z"/><path class="cls-13" transform="rotate(-45 373.124 352.387)" d="M358.46 337.73h29.31v29.31h-29.31z"/><path class="cls-13" transform="rotate(-45 352.426 373.13)" d="M337.73 358.46h29.31v29.31h-29.31z"/><path class="cls-16" d="M352.36 393.84l-20.7 20.74-20.72-20.74 20.72-20.72 20.7 20.72z"/><path class="cls-24" d="M331.65 414.59l-20.72 20.7-20.72-20.7 20.72-20.74 20.72 20.74z"/><path class="cls-16" transform="rotate(-44.97 290.22 435.32)" d="M275.55 420.66h29.3v29.3h-29.3z"/><path class="cls-4" d="M290.18 456.01l-20.7 20.75-20.71-20.75 20.71-20.66 20.7 20.66z"/><path class="cls-10" d="M269.48 476.76l-20.72 20.72-20.74-20.72 20.74-20.71 20.72 20.71z"/><path class="cls-25" d="M248.75 497.49l-20.73 20.73-20.73-20.73 20.73-20.68 20.73 20.68zM228.01 518.21l-20.72 20.74-20.72-20.74 20.72-20.7 20.72 20.7z"/><path class="cls-1" d="M207.28 538.96l-20.72 20.7-20.7-20.7 20.7-20.74 20.72 20.74z"/><path class="cls-13" d="M414.56 373.12l-20.71 20.73-20.73-20.73 20.73-20.73 20.71 20.73z"/><path class="cls-10" d="M393.84 393.84l-20.72 20.74-20.72-20.74 20.72-20.72 20.72 20.72z"/><path class="cls-3" d="M373.11 414.59l-20.72 20.7-20.72-20.7 20.72-20.74 20.72 20.74z"/><path class="cls-21" d="M352.39 435.31l-20.72 20.71-20.74-20.71 20.74-20.72 20.72 20.72z"/><path class="cls-2" d="M331.64 456.01l-20.71 20.75-20.7-20.75 20.7-20.66 20.71 20.66z"/><path class="cls-3" transform="rotate(-45 290.21 476.76)" d="M275.55 462.11h29.32v29.32h-29.32z"/><path class="cls-3" d="M290.2 497.49l-20.72 20.73-20.73-20.73 20.73-20.68 20.72 20.68zM269.46 518.21l-20.7 20.73-20.73-20.73 20.73-20.69 20.7 20.69zM248.74 538.96l-20.72 20.7-20.72-20.7 20.72-20.74 20.72 20.74zM414.56 414.6l-20.71 20.71-20.73-20.71 20.73-20.75 20.71 20.75z"/><path class="cls-3" transform="rotate(-44.97 373.139 435.313)" d="M358.47 420.66h29.3v29.3h-29.3z"/><path class="cls-3" d="M310.92 518.21l-20.72 20.74-20.71-20.74 20.71-20.7 20.72 20.7z"/></svg>