<svg id="Capa_1" data-name="Capa 1" xmlns="http://www.w3.org/2000/svg" viewBox="0 0 414.58 559.66"><defs><style>.cls-1,.cls-10,.cls-11,.cls-12,.cls-13,.cls-14,.cls-15,.cls-16,.cls-17,.cls-18,.cls-19,.cls-2,.cls-20,.cls-21,.cls-22,.cls-23,.cls-24,.cls-25,.cls-3,.cls-4,.cls-5,.cls-6,.cls-7,.cls-8,.cls-9{fill:#75d7ff;}.cls-1{opacity:0.02;}.cls-2{opacity:0.1;}.cls-3{opacity:0.05;}.cls-4{opacity:0.15;}.cls-5{opacity:0.23;}.cls-6{opacity:0.22;}.cls-7{opacity:0.09;}.cls-8{opacity:0.34;}.cls-9{opacity:0.31;}.cls-10{opacity:0.14;}.cls-11{opacity:0.41;}.cls-12{opacity:0.37;}.cls-13{opacity:0.19;}.cls-14{opacity:0.44;}.cls-15{opacity:0.6;}.cls-16{opacity:0.26;}.cls-17{opacity:0.3;}.cls-18{opacity:0.25;}.cls-19{opacity:0.5;}.cls-20{opacity:0.8;}.cls-21{opacity:0.4;}.cls-22{opacity:0.66;}.cls-23{opacity:0.18;}.cls-24{opacity:0.32;}.cls-25{opacity:0.11;}</style></defs><title>background_blocks</title><rect class="cls-1" x="68.26" y="6.07" width="29.31" height="29.31" transform="translate(9.63 64.7) rotate(-45)"/><polygon class="cls-1" points="82.91 41.46 62.19 62.18 41.46 41.46 62.19 20.73 82.91 41.46"/><polygon class="cls-2" points="145.08 20.73 124.37 41.46 103.64 20.73 124.37 0 145.08 20.73"/><polygon class="cls-1" points="124.36 41.47 103.64 62.19 82.95 41.47 103.64 20.73 124.36 41.47"/><polygon class="cls-1" points="103.64 62.19 82.92 82.9 62.19 62.19 82.92 41.46 103.64 62.19"/><polygon class="cls-3" points="82.91 82.91 62.19 103.64 41.47 82.91 62.19 62.19 82.91 82.91"/><polygon class="cls-1" points="62.18 103.66 41.46 124.36 20.74 103.66 41.46 82.91 62.18 103.66"/><rect class="cls-2" x="151.17" y="6.07" width="29.31" height="29.31" transform="translate(33.91 123.33) rotate(-45)"/><polygon class="cls-4" points="165.8 41.47 145.1 62.19 124.4 41.47 145.1 20.73 165.8 41.47"/><polygon class="cls-2" points="145.09 62.2 124.37 82.92 103.64 62.2 124.37 41.46 145.09 62.2"/><polygon class="cls-3" points="124.36 82.91 103.64 103.64 82.94 82.91 103.64 62.19 124.36 82.91"/><polygon class="cls-3" points="103.64 103.65 82.92 124.35 62.2 103.65 82.92 82.92 103.64 103.65"/><polygon class="cls-3" points="82.92 124.37 62.19 145.1 41.46 124.37 62.19 103.65 82.92 124.37"/><polygon class="cls-5" points="228.02 20.73 207.29 41.46 186.58 20.73 207.29 0 228.02 20.73"/><polygon class="cls-2" points="207.28 41.47 186.55 62.18 165.84 41.47 186.55 20.74 207.28 41.47"/><polygon class="cls-2" points="186.56 62.19 165.83 82.9 145.1 62.19 165.83 41.46 186.56 62.19"/><polygon class="cls-1" points="165.8 82.91 145.1 103.64 124.4 82.91 145.1 62.19 165.8 82.91"/><polygon class="cls-3" points="145.08 103.66 124.37 124.37 103.64 103.66 124.37 82.92 145.08 103.66"/><polygon class="cls-3" points="124.37 124.37 103.64 145.1 82.94 124.37 103.64 103.64 124.37 124.37"/><rect class="cls-3" x="68.26" y="130.45" width="29.31" height="29.31" transform="translate(-78.32 101.13) rotate(-45)"/><polygon class="cls-3" points="82.91 165.84 62.19 186.54 41.46 165.84 62.19 145.1 82.91 165.84"/><rect class="cls-6" x="213.36" y="26.8" width="29.31" height="29.31" transform="translate(37.47 173.38) rotate(-45)"/><polygon class="cls-4" points="228.01 62.2 207.29 82.92 186.57 62.2 207.29 41.46 228.01 62.2"/><polygon class="cls-6" points="207.28 82.92 186.55 103.64 165.84 82.92 186.55 62.2 207.28 82.92"/><polygon class="cls-2" points="186.56 103.64 165.82 124.38 145.1 103.64 165.82 82.93 186.56 103.64"/><polygon class="cls-7" points="165.82 124.38 145.1 145.08 124.38 124.38 145.1 103.64 165.82 124.38"/><rect class="cls-7" x="109.72" y="130.45" width="29.3" height="29.3" transform="translate(-66.18 130.55) rotate(-45.03)"/><polygon class="cls-3" points="124.35 165.83 103.64 186.56 82.92 165.83 103.64 145.1 124.35 165.83"/><polygon class="cls-3" points="103.64 186.57 82.92 207.27 62.22 186.57 82.92 165.83 103.64 186.57"/><polygon class="cls-3" points="82.92 207.29 62.19 228.02 41.46 207.29 62.19 186.58 82.92 207.29"/><polygon class="cls-3" points="62.18 228.01 41.46 248.74 20.74 228.01 41.46 207.29 62.18 228.01"/><polygon class="cls-1" points="41.44 248.74 20.73 269.48 0.01 248.74 20.73 228.02 41.44 248.74"/><rect class="cls-8" x="254.82" y="26.8" width="29.31" height="29.31" transform="translate(49.61 202.69) rotate(-45)"/><polygon class="cls-5" points="269.46 62.2 248.75 82.92 228.01 62.2 248.75 41.46 269.46 62.2"/><polygon class="cls-9" points="248.75 82.92 228.02 103.63 207.29 82.92 228.02 62.19 248.75 82.92"/><polygon class="cls-5" points="228.01 103.63 207.29 124.37 186.57 103.63 207.29 82.92 228.01 103.63"/><polygon class="cls-9" points="207.27 124.39 186.55 145.09 165.85 124.39 186.55 103.65 207.27 124.39"/><polygon class="cls-10" points="186.56 145.1 165.82 165.82 145.1 145.1 165.82 124.38 186.56 145.1"/><rect class="cls-10" x="130.45" y="151.17" width="29.31" height="29.31" transform="translate(-74.76 151.17) rotate(-45)"/><polygon class="cls-2" points="145.08 186.58 124.37 207.29 103.66 186.58 124.37 165.83 145.08 186.58"/><polygon class="cls-3" points="124.36 207.28 103.65 228.01 82.92 207.28 103.65 186.57 124.36 207.28"/><polygon class="cls-3" points="103.64 228.01 82.92 248.75 62.22 228.01 82.92 207.29 103.64 228.01"/><polygon class="cls-2" points="82.91 248.74 62.19 269.48 41.47 248.74 62.19 228.02 82.91 248.74"/><rect class="cls-3" x="26.8" y="254.82" width="29.31" height="29.31" transform="translate(-178.4 108.24) rotate(-45)"/><rect class="cls-11" x="296.28" y="26.8" width="29.31" height="29.31" transform="translate(61.74 231.99) rotate(-45)"/><polygon class="cls-8" points="310.92 62.2 290.2 82.92 269.49 62.2 290.2 41.46 310.92 62.2"/><polygon class="cls-8" points="290.2 82.92 269.48 103.63 248.75 82.92 269.48 62.19 290.2 82.92"/><polygon class="cls-8" points="269.48 103.64 248.76 124.38 228.02 103.64 248.76 82.93 269.48 103.64"/><polygon class="cls-5" points="248.74 124.38 228.02 145.08 207.3 124.38 228.02 103.64 248.74 124.38"/><rect class="cls-12" x="192.63" y="130.44" width="29.31" height="29.31" transform="translate(-41.89 189.09) rotate(-45)"/><polygon class="cls-10" points="207.29 165.83 186.56 186.56 165.85 165.83 186.56 145.1 207.29 165.83"/><polygon class="cls-13" points="186.57 186.57 165.83 207.27 145.11 186.57 165.83 165.83 186.57 186.57"/><polygon class="cls-10" points="165.83 207.29 145.1 228.02 124.37 207.29 145.1 186.58 165.83 207.29"/><polygon class="cls-4" points="145.07 228.01 124.37 248.75 103.67 228.01 124.37 207.29 145.07 228.01"/><polygon class="cls-7" points="124.34 248.74 103.64 269.48 82.93 248.74 103.64 228.02 124.34 248.74"/><polygon class="cls-2" points="103.64 269.48 82.92 290.2 62.21 269.48 82.92 248.75 103.64 269.48"/><polygon class="cls-2" points="82.92 290.21 62.19 310.91 41.46 290.21 62.19 269.48 82.92 290.21"/><polygon class="cls-3" points="62.18 310.93 41.46 331.67 20.73 310.93 41.46 290.21 62.18 310.93"/><rect class="cls-1" x="6.07" y="317.01" width="29.31" height="29.31" transform="translate(-228.5 111.86) rotate(-45.01)"/><rect class="cls-12" x="337.73" y="26.8" width="29.32" height="29.32" transform="translate(73.9 261.32) rotate(-45)"/><polygon class="cls-14" points="352.36 62.2 331.66 82.92 310.94 62.2 331.66 41.46 352.36 62.2"/><polygon class="cls-15" points="331.66 82.92 310.93 103.63 290.2 82.92 310.93 62.19 331.66 82.92"/><polygon class="cls-16" points="310.92 103.63 290.2 124.37 269.49 103.63 290.2 82.92 310.92 103.63"/><polygon class="cls-8" points="290.19 124.38 269.48 145.08 248.76 124.38 269.48 103.64 290.19 124.38"/><polygon class="cls-17" points="269.47 145.1 248.76 165.82 228.02 145.1 248.76 124.39 269.47 145.1"/><rect class="cls-12" x="213.36" y="151.17" width="29.31" height="29.31" transform="translate(-50.48 209.8) rotate(-45)"/><polygon class="cls-8" points="228.01 186.57 207.29 207.27 186.57 186.57 207.29 165.83 228.01 186.57"/><polygon class="cls-18" points="207.3 207.28 186.56 228.02 165.84 207.28 186.56 186.56 207.3 207.28"/><polygon class="cls-10" points="186.56 228.02 165.82 248.76 145.1 228.02 165.82 207.3 186.56 228.02"/><polygon class="cls-13" points="165.82 248.74 145.1 269.48 124.38 248.74 145.1 228.02 165.82 248.74"/><rect class="cls-4" x="109.72" y="254.82" width="29.3" height="29.3" transform="translate(-154.17 167.01) rotate(-45.03)"/><polygon class="cls-4" points="124.37 290.21 103.66 310.92 82.92 290.21 103.66 269.46 124.37 290.21"/><polygon class="cls-3" points="103.64 310.92 82.92 331.66 62.22 310.92 82.92 290.2 103.64 310.92"/><rect class="cls-3" x="47.53" y="317.01" width="29.31" height="29.31" transform="translate(-216.31 141.11) rotate(-45)"/><rect class="cls-1" x="26.8" y="337.74" width="29.31" height="29.31" transform="translate(-237.03 132.53) rotate(-45)"/><polygon class="cls-12" points="414.56 41.46 393.85 62.19 373.12 41.46 393.85 20.73 414.56 41.46"/><polygon class="cls-12" points="393.84 62.2 373.12 82.92 352.4 62.2 373.12 41.46 393.84 62.2"/><polygon class="cls-12" points="373.12 82.92 352.39 103.63 331.66 82.92 352.39 62.19 373.12 82.92"/><polygon class="cls-13" points="352.36 103.63 331.66 124.37 310.94 103.63 331.66 82.92 352.36 103.63"/><polygon class="cls-16" points="331.65 124.38 310.93 145.08 290.21 124.38 310.93 103.64 331.65 124.38"/><rect class="cls-16" x="275.55" y="130.44" width="29.31" height="29.31" transform="translate(-17.6 247.72) rotate(-45)"/><rect class="cls-16" x="254.82" y="151.17" width="29.31" height="29.31" transform="translate(-38.33 239.12) rotate(-45)"/><polygon class="cls-17" points="269.46 186.57 248.76 207.26 228.03 186.57 248.76 165.84 269.46 186.57"/><polygon class="cls-13" points="248.75 207.29 228.02 228.02 207.29 207.29 228.02 186.58 248.75 207.29"/><polygon class="cls-13" points="228.01 228.01 207.29 248.75 186.57 228.01 207.29 207.29 228.01 228.01"/><polygon class="cls-13" points="207.28 248.74 186.56 269.48 165.86 248.74 186.56 228.02 207.28 248.74"/><polygon class="cls-7" points="186.56 269.48 165.82 290.19 145.1 269.48 165.82 248.76 186.56 269.48"/><polygon class="cls-7" points="165.83 290.21 145.1 310.91 124.37 290.21 145.1 269.48 165.83 290.21"/><polygon class="cls-18" points="145.07 310.92 124.37 331.66 103.67 310.92 124.37 290.2 145.07 310.92"/><polygon class="cls-13" points="124.35 331.66 103.64 352.39 82.92 331.66 103.64 310.93 124.35 331.66"/><polygon class="cls-7" points="103.64 352.39 82.92 373.12 62.21 352.39 82.92 331.66 103.64 352.39"/><rect class="cls-7" x="47.53" y="358.46" width="29.31" height="29.31" transform="translate(-245.63 153.27) rotate(-45)"/><polygon class="cls-1" points="62.18 393.84 41.46 414.57 20.74 393.84 41.46 373.13 62.18 393.84"/><polygon class="cls-12" points="414.58 82.92 393.86 103.64 373.12 82.92 393.86 62.18 414.58 82.92"/><polygon class="cls-14" points="393.84 103.63 373.12 124.37 352.4 103.63 373.12 82.92 393.84 103.63"/><polygon class="cls-12" points="373.11 124.38 352.39 145.08 331.67 124.38 352.39 103.64 373.11 124.38"/><polygon class="cls-19" points="352.37 145.1 331.66 165.83 310.93 145.1 331.66 124.37 352.37 145.1"/><rect class="cls-20" x="296.28" y="151.17" width="29.31" height="29.31" transform="translate(-26.2 268.41) rotate(-45)"/><polygon class="cls-21" points="310.92 186.57 290.2 207.27 269.49 186.57 290.2 165.83 310.92 186.57"/><polygon class="cls-16" points="290.2 207.29 269.48 228.02 248.75 207.29 269.48 186.58 290.2 207.29"/><polygon class="cls-16" points="269.45 228.02 248.75 248.75 228.02 228.02 248.75 207.31 269.45 228.02"/><polygon class="cls-13" points="248.74 248.74 228.02 269.48 207.3 248.74 228.02 228.02 248.74 248.74"/><rect class="cls-13" x="192.63" y="254.82" width="29.31" height="29.31" transform="translate(-129.83 225.5) rotate(-45)"/><polygon class="cls-10" points="207.28 290.22 186.55 310.92 165.84 290.22 186.55 269.49 207.28 290.22"/><polygon class="cls-13" points="186.56 310.93 165.82 331.67 145.1 310.93 165.82 290.21 186.56 310.93"/><rect class="cls-13" x="130.45" y="317.01" width="29.31" height="29.31" transform="translate(-192.02 199.74) rotate(-45)"/><rect class="cls-13" x="109.72" y="337.74" width="29.3" height="29.3" transform="translate(-212.83 191.32) rotate(-45.03)"/><polygon class="cls-13" points="124.35 373.12 103.64 393.85 82.92 373.12 103.64 352.39 124.35 373.12"/><polygon class="cls-7" points="103.64 393.84 82.92 414.58 62.22 393.84 82.92 373.12 103.64 393.84"/><polygon class="cls-1" points="82.91 414.59 62.19 435.29 41.47 414.59 62.19 393.85 82.91 414.59"/><polygon class="cls-12" points="414.56 124.39 393.85 145.1 373.12 124.39 393.85 103.64 414.56 124.39"/><rect class="cls-5" x="358.46" y="130.44" width="29.31" height="29.31" transform="translate(6.69 306.35) rotate(-45)"/><rect class="cls-5" x="337.73" y="151.17" width="29.32" height="29.32" transform="translate(-14.05 297.75) rotate(-45)"/><polygon class="cls-15" points="352.37 186.58 331.67 207.28 310.95 186.58 331.67 165.84 352.37 186.58"/><polygon class="cls-13" points="331.66 207.29 310.93 228.02 290.2 207.29 310.93 186.58 331.66 207.29"/><polygon class="cls-16" points="310.92 228.01 290.2 248.75 269.49 228.01 290.2 207.29 310.92 228.01"/><polygon class="cls-6" points="290.19 248.74 269.48 269.48 248.76 248.74 269.48 228.02 290.19 248.74"/><polygon class="cls-6" points="269.48 269.48 248.76 290.19 228.02 269.48 248.76 248.76 269.48 269.48"/><polygon class="cls-13" points="248.75 290.21 228.02 310.91 207.29 290.21 228.02 269.48 248.75 290.21"/><polygon class="cls-7" points="228.01 310.92 207.29 331.66 186.57 310.92 207.29 290.2 228.01 310.92"/><polygon class="cls-13" points="207.29 331.66 186.56 352.39 165.85 331.66 186.56 310.93 207.29 331.66"/><polygon class="cls-10" points="186.56 352.39 165.82 373.11 145.1 352.39 165.82 331.67 186.56 352.39"/><rect class="cls-10" x="130.45" y="358.46" width="29.31" height="29.31" transform="translate(-221.34 211.91) rotate(-45)"/><polygon class="cls-13" points="145.07 393.84 124.37 414.58 103.67 393.84 124.37 373.12 145.07 393.84"/><polygon class="cls-13" points="124.36 414.59 103.66 435.3 82.93 414.59 103.66 393.84 124.36 414.59"/><polygon class="cls-1" points="103.66 435.32 82.92 456.04 62.2 435.32 82.92 414.6 103.66 435.32"/><polygon class="cls-1" points="82.89 456.01 62.19 476.76 41.48 456.01 62.19 435.35 82.89 456.01"/><polygon class="cls-5" points="414.56 165.83 393.85 186.56 373.12 165.83 393.85 145.1 414.56 165.83"/><polygon class="cls-13" points="393.84 186.57 373.12 207.27 352.4 186.57 373.12 165.83 393.84 186.57"/><polygon class="cls-13" points="373.12 207.29 352.39 228.02 331.66 207.29 352.39 186.58 373.12 207.29"/><polygon class="cls-11" points="352.36 228.01 331.66 248.75 310.94 228.01 331.66 207.29 352.36 228.01"/><polygon class="cls-14" points="331.65 248.74 310.93 269.48 290.21 248.74 310.93 228.02 331.65 248.74"/><rect class="cls-6" x="275.55" y="254.82" width="29.32" height="29.32" transform="translate(-105.55 284.13) rotate(-45)"/><polygon class="cls-6" points="290.2 290.21 269.48 310.91 248.75 290.21 269.48 269.48 290.2 290.21"/><polygon class="cls-13" points="269.45 310.93 248.75 331.66 228.02 310.93 248.75 290.23 269.45 310.93"/><rect class="cls-10" x="213.36" y="317.01" width="29.31" height="29.31" transform="translate(-167.74 258.37) rotate(-45)"/><rect class="cls-13" x="192.63" y="337.73" width="29.31" height="29.31" transform="translate(-188.46 249.79) rotate(-45)"/><polygon class="cls-5" points="207.29 373.12 186.56 393.85 165.85 373.12 186.56 352.39 207.29 373.12"/><polygon class="cls-13" points="186.56 393.85 165.82 414.59 145.1 393.85 165.82 373.13 186.56 393.85"/><polygon class="cls-13" points="165.82 414.59 145.1 435.29 124.38 414.59 145.1 393.85 165.82 414.59"/><rect class="cls-10" x="109.72" y="420.65" width="29.32" height="29.32" transform="translate(-271.38 215.44) rotate(-45)"/><polygon class="cls-7" points="124.33 456.01 103.64 476.76 82.94 456.01 103.64 435.35 124.33 456.01"/><polygon class="cls-13" points="414.56 207.29 393.85 228.02 373.12 207.29 393.85 186.58 414.56 207.29"/><polygon class="cls-13" points="393.84 228.01 373.12 248.75 352.4 228.01 373.12 207.29 393.84 228.01"/><polygon class="cls-12" points="373.11 248.74 352.39 269.48 331.67 248.74 352.39 228.02 373.11 248.74"/><polygon class="cls-16" points="352.37 269.48 331.66 290.2 310.93 269.48 331.66 248.75 352.37 269.48"/><polygon class="cls-8" points="331.66 290.21 310.93 310.91 290.21 290.21 310.93 269.48 331.66 290.21"/><polygon class="cls-19" points="310.92 310.92 290.2 331.66 269.49 310.92 290.2 290.2 310.92 310.92"/><rect class="cls-19" x="254.82" y="317" width="29.31" height="29.31" transform="translate(-155.59 287.69) rotate(-45)"/><polygon class="cls-12" points="269.48 352.39 248.76 373.11 228.02 352.39 248.76 331.67 269.48 352.39"/><rect class="cls-13" x="213.36" y="358.46" width="29.31" height="29.31" transform="translate(-197.06 270.54) rotate(-45)"/><polygon class="cls-13" points="228.01 393.84 207.29 414.58 186.57 393.84 207.29 373.12 228.01 393.84"/><polygon class="cls-22" points="207.28 414.59 186.56 435.29 165.86 414.59 186.56 393.85 207.28 414.59"/><polygon class="cls-13" points="186.56 435.31 165.82 456 145.1 435.31 165.82 414.61 186.56 435.31"/><polygon class="cls-10" points="165.81 456.01 145.1 476.76 124.39 456.01 145.1 435.35 165.81 456.01"/><rect class="cls-7" x="109.72" y="462.11" width="29.3" height="29.3" transform="translate(-300.82 227.8) rotate(-45.03)"/><polygon class="cls-12" points="414.55 248.74 393.85 269.48 373.13 248.74 393.85 228.02 414.55 248.74"/><rect class="cls-8" x="358.46" y="254.82" width="29.31" height="29.31" transform="translate(-81.26 342.76) rotate(-45)"/><polygon class="cls-8" points="373.12 290.21 352.39 310.91 331.66 290.21 352.39 269.48 373.12 290.21"/><polygon class="cls-12" points="352.36 310.92 331.66 331.66 310.94 310.92 331.66 290.2 352.36 310.92"/><rect class="cls-13" x="296.28" y="317.01" width="29.31" height="29.31" transform="translate(-143.45 316.98) rotate(-45)"/><rect class="cls-8" x="275.55" y="337.73" width="29.32" height="29.32" transform="translate(-164.18 308.42) rotate(-45)"/><rect class="cls-8" x="254.82" y="358.46" width="29.31" height="29.31" transform="translate(-184.91 299.86) rotate(-45)"/><polygon class="cls-6" points="269.45 393.85 248.75 414.58 228.02 393.85 248.75 373.14 269.45 393.85"/><polygon class="cls-23" points="248.74 414.59 228.02 435.29 207.3 414.59 228.02 393.85 248.74 414.59"/><rect class="cls-23" x="192.64" y="420.66" width="29.3" height="29.3" transform="translate(-247.01 273.85) rotate(-44.97)"/><polygon class="cls-17" points="207.28 456 186.56 476.76 165.86 456 186.56 435.32 207.28 456"/><polygon class="cls-7" points="186.56 476.76 165.82 497.48 145.1 476.76 165.82 456.05 186.56 476.76"/><polygon class="cls-3" points="165.83 497.49 145.1 518.22 124.37 497.49 145.1 476.81 165.83 497.49"/><polygon class="cls-1" points="145.08 518.2 124.37 538.95 103.66 518.2 124.37 497.49 145.08 518.2"/><polygon class="cls-8" points="414.58 290.21 393.86 310.92 373.12 290.21 393.86 269.47 414.58 290.21"/><polygon class="cls-16" points="393.84 310.92 373.12 331.66 352.4 310.92 373.12 290.21 393.84 310.92"/><rect class="cls-16" x="337.73" y="317" width="29.32" height="29.32" transform="translate(-131.31 346.32) rotate(-45)"/><polygon class="cls-21" points="352.37 352.39 331.66 373.12 310.93 352.39 331.66 331.66 352.37 352.39"/><rect class="cls-8" x="296.28" y="358.46" width="29.31" height="29.31" transform="translate(-172.77 329.14) rotate(-45)"/><polygon class="cls-16" points="310.92 393.84 290.2 414.58 269.49 393.84 290.2 373.12 310.92 393.84"/><polygon class="cls-16" points="290.19 414.59 269.48 435.29 248.76 414.59 269.48 393.85 290.19 414.59"/><polygon class="cls-13" points="269.48 435.31 248.76 456 228.02 435.31 248.76 414.61 269.48 435.31"/><polygon class="cls-12" points="248.72 456.02 228.02 476.76 207.31 456.02 228.02 435.35 248.72 456.02"/><rect class="cls-13" x="192.63" y="462.11" width="29.31" height="29.31" transform="translate(-276.41 286.22) rotate(-45)"/><polygon class="cls-7" points="207.3 497.48 186.56 518.22 165.84 497.48 186.56 476.79 207.3 497.48"/><polygon class="cls-3" points="186.57 518.21 165.83 538.95 145.11 518.21 165.83 497.51 186.57 518.21"/><polygon class="cls-3" points="165.82 538.96 145.1 559.66 124.38 538.96 145.1 518.22 165.82 538.96"/><polygon class="cls-16" points="414.56 331.66 393.85 352.39 373.12 331.66 393.85 310.93 414.56 331.66"/><rect class="cls-13" x="358.46" y="337.73" width="29.31" height="29.31" transform="translate(-139.89 367.05) rotate(-45)"/><rect class="cls-13" x="337.73" y="358.46" width="29.31" height="29.31" transform="translate(-160.62 358.49) rotate(-45)"/><polygon class="cls-16" points="352.36 393.84 331.66 414.58 310.94 393.84 331.66 373.12 352.36 393.84"/><polygon class="cls-24" points="331.65 414.59 310.93 435.29 290.21 414.59 310.93 393.85 331.65 414.59"/><rect class="cls-16" x="275.55" y="420.66" width="29.3" height="29.3" transform="translate(-222.76 332.45) rotate(-44.97)"/><polygon class="cls-4" points="290.18 456.01 269.48 476.76 248.77 456.01 269.48 435.35 290.18 456.01"/><polygon class="cls-10" points="269.48 476.76 248.76 497.48 228.02 476.76 248.76 456.05 269.48 476.76"/><polygon class="cls-25" points="248.75 497.49 228.02 518.22 207.29 497.49 228.02 476.81 248.75 497.49"/><polygon class="cls-25" points="228.01 518.21 207.29 538.95 186.57 518.21 207.29 497.51 228.01 518.21"/><polygon class="cls-1" points="207.28 538.96 186.56 559.66 165.86 538.96 186.56 518.22 207.28 538.96"/><polygon class="cls-13" points="414.56 373.12 393.85 393.85 373.12 373.12 393.85 352.39 414.56 373.12"/><polygon class="cls-10" points="393.84 393.84 373.12 414.58 352.4 393.84 373.12 373.12 393.84 393.84"/><polygon class="cls-3" points="373.11 414.59 352.39 435.29 331.67 414.59 352.39 393.85 373.11 414.59"/><polygon class="cls-21" points="352.39 435.31 331.67 456.02 310.93 435.31 331.67 414.59 352.39 435.31"/><polygon class="cls-2" points="331.64 456.01 310.93 476.76 290.23 456.01 310.93 435.35 331.64 456.01"/><rect class="cls-3" x="275.55" y="462.11" width="29.32" height="29.32" transform="translate(-252.12 344.85) rotate(-45)"/><polygon class="cls-3" points="290.2 497.49 269.48 518.22 248.75 497.49 269.48 476.81 290.2 497.49"/><polygon class="cls-3" points="269.46 518.21 248.76 538.94 228.03 518.21 248.76 497.52 269.46 518.21"/><polygon class="cls-3" points="248.74 538.96 228.02 559.66 207.3 538.96 228.02 518.22 248.74 538.96"/><polygon class="cls-3" points="414.56 414.6 393.85 435.31 373.12 414.6 393.85 393.85 414.56 414.6"/><rect class="cls-3" x="358.47" y="420.66" width="29.3" height="29.3" transform="translate(-198.5 391.05) rotate(-44.97)"/><polygon class="cls-3" points="310.92 518.21 290.2 538.95 269.49 518.21 290.2 497.51 310.92 518.21"/></svg>